<svg width="198" height="17" viewBox="0 0 198 17" fill="none" xmlns="http://www.w3.org/2000/svg">
<g clip-path="url(#clip0_1466_5122)">
<mask id="mask0_1466_5122" style="mask-type:luminance" maskUnits="userSpaceOnUse" x="0" y="0" width="198" height="17">
<path d="M0 17H198V0H0V17Z" fill="white"/>
</mask>
<g mask="url(#mask0_1466_5122)">
<path d="M189.009 13.8372V9.91873H196.679V6.87264H189.009V3.196H197.693V0.0525461H185.21V16.9753H198V13.8318L189.009 13.8372ZM172.244 16.9807H175.831L175.783 0.0579551H172.645L166.556 10.5755L160.373 0.0579551H157.21V16.9807H160.797V7.04263L166.507 16.6569L172.22 6.82473L172.244 16.9807ZM140.498 11.1481L147.058 0.0741823H144.719L139.409 8.99609L134.126 0.0741823H131.601L138.161 11.0995V16.9992H140.501L140.498 11.1481ZM114.443 2.17755H123.742V0.0741823H112.085V16.9969H114.445V10.1544H122.726V8.075H114.443L114.443 2.17755ZM98.3798 17H100.74V0.0772715H98.3798V17ZM77.8294 17H89.1332V14.8966H80.1893V0.0741823H77.8294V17ZM67.9248 5.97395C67.963 5.1564 67.8168 4.34082 67.4976 3.59042C67.1784 2.84001 66.6947 2.17492 66.0841 1.64668C64.6361 0.525817 62.846 -0.0312821 61.0337 0.0749546H54.5909V16.9977H56.9508V11.8737H61.0337C62.846 11.98 64.6361 11.4229 66.0841 10.302C66.6947 9.77376 67.1784 9.10867 67.4976 8.35827C67.8168 7.60786 67.963 6.79151 67.9248 5.97395ZM65.5649 5.97473C65.596 6.50601 65.5055 7.03741 65.3006 7.52655C65.0957 8.01569 64.782 8.44905 64.3845 8.79209C63.387 9.50989 62.1792 9.85549 60.9627 9.77114H56.9508V2.17832H60.9627C62.1792 2.09397 63.387 2.43956 64.3845 3.15736C64.7819 3.50032 65.0955 3.93356 65.3004 4.42256C65.5054 4.91155 65.5959 5.44356 65.5649 5.97473ZM40.986 17H43.2501L43.2267 0.0772715H41.2947L34.4979 11.9773L27.6068 0.0772715H25.6725V17H27.9366V4.74145L34.4971 15.8625L40.9634 4.66882L40.986 17ZM8.53418 17H17.069L12.8012 8.5L8.53344 0L4.26562 8.5L-0.00292969 17H8.53418ZM14.3732 15.3147H2.69511L5.72973 9.27041L8.53418 3.68591L11.3386 9.27041L14.3732 15.3147Z" fill="black"/>
</g>
</g>
<defs>
<clipPath id="clip0_1466_5122">
<rect width="198" height="17" fill="white"/>
</clipPath>
</defs>
</svg>
